<?xml version="1.0" encoding="UTF-8" standalone="no"?>
<!-- Created with Inkscape (http://www.inkscape.org/) -->

<svg
   width="429.82065mm"
   height="91.591293mm"
   viewBox="0 0 429.82065 91.591293"
   version="1.1"
   id="svg15927"
   inkscape:export-filename="/home/brandoniscoding/Bureau/gamaHub.png"
   inkscape:export-xdpi="32"
   inkscape:export-ydpi="32"
   inkscape:version="1.1.2 (0a00cf5339, 2022-02-04)"
   sodipodi:docname="gamehub.svg"
   xmlns:inkscape="http://www.inkscape.org/namespaces/inkscape"
   xmlns:sodipodi="http://sodipodi.sourceforge.net/DTD/sodipodi-0.dtd"
   xmlns="http://www.w3.org/2000/svg"
   xmlns:svg="http://www.w3.org/2000/svg">
  <sodipodi:namedview
     id="namedview15929"
     pagecolor="#606060"
     bordercolor="#999999"
     borderopacity="1"
     inkscape:pageshadow="0"
     inkscape:pageopacity="0"
     inkscape:pagecheckerboard="0"
     inkscape:document-units="mm"
     showgrid="false"
     showborder="false"
     inkscape:zoom="0.2786611"
     inkscape:cx="832.55252"
     inkscape:cy="263.76125"
     inkscape:window-width="1296"
     inkscape:window-height="704"
     inkscape:window-x="0"
     inkscape:window-y="0"
     inkscape:window-maximized="1"
     inkscape:current-layer="layer1"
     fit-margin-top="0"
     fit-margin-left="0"
     fit-margin-right="0"
     fit-margin-bottom="0" />
  <defs
     id="defs15924">
    <rect
       x="820.38495"
       y="823.32874"
       width="442.68604"
       height="201.49364"
       id="rect4623" />
  </defs>
  <g
     inkscape:label="Calque 1"
     inkscape:groupmode="layer"
     id="layer1"
     transform="translate(75.184937,-194.23207)">
    <text
       xml:space="preserve"
       style="font-style:normal;font-variant:normal;font-weight:normal;font-stretch:normal;font-size:94.6588px;line-height:1.25;font-family:NATS;-inkscape-font-specification:'NATS, Normal';font-variant-ligatures:normal;font-variant-caps:normal;font-variant-numeric:normal;font-variant-east-asian:normal;fill:#eab308;fill-opacity:1;stroke-width:1.01518"
       x="-81.123962"
       y="258.8627"
       id="text69582"
       transform="scale(0.9639067,1.0374448)"><tspan
         sodipodi:role="line"
         id="tspan69580"
         style="font-style:normal;font-variant:normal;font-weight:bold;font-stretch:normal;font-size:94.6588px;font-family:'Tlwg Mono';-inkscape-font-specification:'Tlwg Mono, Bold';font-variant-ligatures:normal;font-variant-caps:normal;font-variant-numeric:normal;font-variant-east-asian:normal;fill:#eab308;fill-opacity:1;stroke-width:1.01518"
         x="-81.123962"
         y="258.8627">Ga</tspan></text>
    <path
       d="m 52.743178,222.51274 c -0.802136,0.079 -1.792266,0.22015 -2.575784,0.37255 -1.674218,0.3274 -2.555125,0.68867 -3.328637,1.36603 -0.56324,0.49675 -1.264548,1.93615 -1.70157,3.51104 -0.121927,0.44594 -0.229215,0.82413 -0.242669,0.82978 -0.0068,0.006 -0.364591,0.2258 -0.796431,0.4798 -2.15288,1.28701 -3.744239,2.51757 -4.428866,3.43202 -0.712184,0.95961 -1.336767,2.22403 -1.90195,3.8723 -0.416892,1.21927 -0.402154,1.14588 -1.203895,7.50188 -0.730191,5.75201 -0.920782,8.04942 -1.003238,12.02332 -0.05878,3.08205 -0.01454,4.96176 0.147818,6.24311 0.203588,1.56924 0.840962,2.78285 2.008421,3.83843 1.534848,1.38297 3.134487,2.1676 5.195559,2.54579 0.957416,0.17498 2.765492,0.17498 3.529432,0 1.092251,-0.24837 2.169761,-0.77334 3.373937,-1.64263 1.643879,-1.18539 2.914776,-2.75464 4.879023,-6.04553 0.46876,-0.79026 1.019951,-1.70471 1.213007,-2.03211 0.241161,-0.40079 0.48727,-0.71124 0.758882,-0.95961 0.224047,-0.20322 0.564315,-0.55319 0.768671,-0.77333 l 0.368141,-0.41207 0.671598,0.46852 c 1.521076,1.05556 2.269077,1.36603 4.031101,1.68214 0.824514,0.14677 2.45859,0.17498 3.254804,0.0564 1.826593,-0.27094 3.41074,-0.77333 4.766,-1.51843 1.159837,-0.64351 1.867924,-1.38862 2.811901,-2.95787 l 0.496093,-0.82413 h 4.436807 4.436806 l 0.464659,0.82413 c 0.884119,1.56925 1.563788,2.31436 2.699083,2.95787 1.306924,0.73944 2.891826,1.24749 4.708079,1.51843 0.791701,0.11854 2.426851,0.0904 3.256961,-0.0564 1.77408,-0.31611 2.53392,-0.62658 4.09526,-1.68214 l 0.68947,-0.46852 0.35241,0.41207 c 0.18929,0.22014 0.50976,0.55882 0.71304,0.74511 0.412899,0.38949 0.522869,0.57011 1.696899,2.68125 1.95419,3.53363 3.1123,5.08029 4.72354,6.30519 1.17059,0.89188 2.31385,1.46765 3.41653,1.72166 0.76393,0.17498 2.56534,0.17498 3.53611,0 2.07549,-0.37819 3.70506,-1.16282 5.29265,-2.54579 1.20773,-1.05558 1.89139,-2.26919 2.15484,-3.83843 0.21125,-1.28135 0.32715,-3.16106 0.38592,-6.24311 0.0691,-3.97955 -0.0338,-6.27695 -0.54464,-12.02332 -0.54802,-6.24874 -0.57148,-6.41808 -1.0187,-7.8067 -0.54805,-1.69907 -1.10665,-2.84495 -1.84883,-3.81021 -0.61188,-0.80156 -2.24895,-2.07162 -4.16184,-3.22315 l -0.73864,-0.45159 -0.0675,-0.31045 c -0.0366,-0.175 -0.16744,-0.66609 -0.28602,-1.09509 -0.59905,-2.17323 -1.301,-3.14977 -2.69111,-3.72553 -0.90684,-0.3782 -2.31536,-0.68867 -4.05285,-0.89188 -0.93191,-0.1129 -2.89377,-0.0959 -3.63004,0.0283 -0.68269,0.1129 -1.52808,0.36127 -1.959069,0.57011 -0.65331,0.32176 -1.4408,1.03299 -2.2607,2.04341 -0.51256,0.63786 -0.68527,0.94832 -0.9329,1.68778 -0.19844,0.60963 -0.54775,2.13372 -0.55335,2.42724 l -0.003,0.175 H 78.730463 61.316831 l 0.0034,-0.175 c 0.0113,-0.59269 -0.495208,-2.72077 -0.777897,-3.29089 -0.211885,-0.43465 -1.130769,-1.58053 -1.642132,-2.05469 -0.819453,-0.76204 -1.57994,-1.11766 -2.889672,-1.36039 -0.698181,-0.12418 -2.431796,-0.18063 -3.267291,-0.10156 z m 54.126612,7.82364 c 1.31511,0.31045 2.1831,1.32652 2.16672,2.53449 -0.0111,0.58141 -0.15883,0.98218 -0.55539,1.48457 -0.88176,1.10637 -2.76367,1.47893 -4.10536,0.81284 -1.58629,-0.78463 -2.03405,-2.49497 -0.9886,-3.78762 0.33489,-0.41772 0.7068,-0.67738 1.28489,-0.90317 0.73273,-0.28788 1.38065,-0.3274 2.19774,-0.14111 z m -53.031101,2.9522 -0.03004,1.57489 -0.374381,0.38948 c -0.619093,0.62658 -1.588239,1.41684 -1.904296,1.54666 l -0.295826,0.11854 -0.291304,-0.11854 c -0.337577,-0.14111 -1.066744,-0.73946 -1.734245,-1.42247 l -0.471119,-0.48545 0.03036,-1.59182 0.03025,-1.58617 h 2.535314 2.535318 z m 45.537232,2.71513 c 0.842169,0.27094 1.589849,0.94831 1.849719,1.66519 0.16497,0.44595 0.15087,1.18541 -0.0239,1.60876 -0.2446,0.58141 -0.62641,1.01042 -1.206759,1.35474 -0.58024,0.33869 -1.04964,0.46288 -1.77042,0.47417 -0.73401,0.006 -1.22537,-0.11854 -1.79291,-0.44594 -1.590256,-0.92574 -1.766415,-2.88448 -0.36337,-4.036 0.42701,-0.34998 0.88499,-0.57576 1.4279,-0.7056 0.50266,-0.11854 1.37591,-0.079 1.87985,0.0847 z m 14.740249,-0.1073 c 0.90427,0.1637 1.73426,0.72253 2.14071,1.4507 0.22608,0.3895 0.24459,0.46851 0.25438,1.00477 0.0238,0.84672 -0.19231,1.33781 -0.86424,1.93615 -1.21515,1.09509 -3.21705,1.11202 -4.47092,0.0395 -0.61047,-0.52495 -0.86648,-1.09508 -0.85818,-1.8797 0.0245,-1.63697 1.88988,-2.89011 3.79825,-2.55143 z m -66.120243,0.44594 c 1.066851,0.73381 1.885548,1.53537 1.879842,1.83454 -0.0053,0.27659 -0.779756,1.00476 -1.895258,1.77245 l -0.500291,0.34434 h -1.894812 -1.888151 l 0.04015,-2.1055 c 0.02217,-1.16282 0.06062,-2.12807 0.08765,-2.145 0.02047,-0.0226 0.861422,-0.0395 1.862209,-0.0395 h 1.821422 z m 10.653915,1.80631 -0.04037,2.11679 -1.86178,0.0169 -1.861673,0.0116 -0.362433,-0.23707 c -0.579913,-0.3782 -1.591021,-1.23621 -1.799358,-1.50716 -0.09738,-0.14112 -0.180676,-0.32175 -0.179061,-0.40641 0.0058,-0.30482 0.936011,-1.15154 2.097894,-1.90228 l 0.358131,-0.23709 1.847897,0.0116 1.841119,0.0169 z m 28.307971,-0.30481 c 1.294124,0.36126 2.329024,0.67173 2.301799,0.69996 -0.03377,0.0226 -0.315628,0.1073 -0.630826,0.19191 -0.315081,0.079 -1.37484,0.37255 -2.360881,0.64915 l -1.797651,0.50237 0.02577,-1.34908 c 0.01406,-0.73947 0.04573,-1.3491 0.06577,-1.3491 0.02004,0 1.101931,0.29352 2.396064,0.65479 z m -14.737673,0.67173 -0.02422,1.27006 h -2.435239 -2.43524 l 0.02422,-1.27006 0.02422,-1.27007 h 2.435239 2.43524 z m -20.669307,1.03863 c 0.363294,0.19192 0.842697,0.5927 1.490729,1.24749 l 0.641465,0.64915 -0.04348,1.58053 -0.05015,1.58053 h -2.501963 -2.501958 l 0.01021,-1.58618 0.01694,-1.58617 0.448847,-0.44594 c 0.673214,-0.66608 1.10033,-1.02169 1.545948,-1.29829 0.432279,-0.27659 0.639646,-0.30482 0.943428,-0.14112 z m 55.508907,2.16194 c 1.17179,0.47981 1.78322,1.30394 1.76255,2.38774 -0.0148,0.77897 -0.35426,1.43376 -1.01102,1.93615 -0.67031,0.51366 -1.34126,0.71124 -2.32139,0.67736 -0.58679,-0.0169 -0.69312,-0.0395 -1.15638,-0.23707 -2.53499,-1.06687 -2.21622,-4.1376 0.50699,-4.894 0.30185,-0.0847 0.52902,-0.10151 1.05588,-0.0904 0.61349,0.0169 0.72648,0.0395 1.16338,0.22014 z m -41.404469,4.48193 c 1.462971,0.25402 2.842862,1.01607 3.68416,2.03212 0.378357,0.45158 0.771239,1.19104 0.934158,1.74423 0.207255,0.67737 0.183787,1.90792 -0.04899,2.56836 -0.458539,1.30393 -1.352041,2.32564 -2.639829,3.03123 -1.078697,0.58706 -2.070765,0.82979 -3.378457,0.82979 -1.254215,-0.006 -2.283504,-0.25966 -3.286868,-0.82415 -2.317073,-1.29829 -3.264463,-3.74811 -2.32059,-6.01165 0.31466,-0.75639 0.711533,-1.27572 1.470949,-1.91358 0.949351,-0.80155 1.878253,-1.23054 3.130202,-1.45635 0.602622,-0.11286 1.823579,-0.11286 2.455256,0 z m 27.548331,-0.006 c 2.008024,0.36127 3.627989,1.47893 4.372429,3.02559 1.42507,2.94092 -0.62708,6.2939 -4.324615,7.06159 -0.823878,0.16934 -2.024815,0.16934 -2.842226,0 -1.435412,-0.29918 -2.728677,-1.05558 -3.530164,-2.06033 -0.527728,-0.66608 -0.810203,-1.2475 -0.975263,-2.03777 -0.104488,-0.46851 -0.06467,-1.50715 0.06493,-2.00388 0.545168,-1.99825 2.409226,-3.53362 4.853181,-3.99085 0.522229,-0.0961 1.836597,-0.0961 2.381757,0.006 z"
       id="path83020"
       style="fill:#eab308;fill-opacity:1;stroke:none;stroke-width:0.00613687" />
    <text
       xml:space="preserve"
       style="font-style:normal;font-variant:normal;font-weight:bold;font-stretch:normal;font-size:94.5444px;line-height:1.25;font-family:'Tlwg Mono';-inkscape-font-specification:'Tlwg Mono, Bold';font-variant-ligatures:normal;font-variant-caps:normal;font-variant-numeric:normal;font-variant-east-asian:normal;fill:#eab308;fill-opacity:1;stroke-width:0.264583"
       x="126.58504"
       y="265.51584"
       id="text88288"><tspan
         sodipodi:role="line"
         id="tspan88286"
         style="font-style:normal;font-variant:normal;font-weight:bold;font-stretch:normal;font-size:94.5444px;font-family:'Tlwg Mono';-inkscape-font-specification:'Tlwg Mono, Bold';font-variant-ligatures:normal;font-variant-caps:normal;font-variant-numeric:normal;font-variant-east-asian:normal;fill:#eab308;fill-opacity:1;stroke-width:0.264583"
         x="126.58504"
         y="265.51584">e</tspan></text>
    <path
       id="rect1171"
       style="fill:#eab308;fill-opacity:1;stroke-width:29.3317"
       d="m 767.61523,734.10547 c -17.32779,0 -31.27734,13.94955 -31.27734,31.27734 V 1049 c 0,17.3278 13.94955,31.2773 31.27734,31.2773 h 541.46287 c 17.3278,0 31.2774,-13.9495 31.2774,-31.2773 V 765.38281 c 0,-17.32779 -13.9496,-31.27734 -31.2774,-31.27734 z m 39.31641,43.30078 h 29.66211 c 12.92165,0 19.38281,7.24523 19.38281,21.73828 0,14.49306 -6.46116,21.74024 -19.38281,21.74024 H 832.1875 V 882.625 h 62.84766 v -61.74023 h -4.40625 c -12.92166,0 -19.38282,-7.24718 -19.38282,-21.74024 0,-14.49305 6.46116,-21.73828 19.38282,-21.73828 h 29.66211 c 12.92165,0 19.38086,7.24523 19.38086,21.73828 0,13.04375 -5.08884,20.29093 -15.26954,21.74024 v 166.52539 h 1.76172 c 12.92166,0 19.38281,7.24522 19.38282,21.73824 0,14.4931 -6.46116,21.7403 -19.38282,21.7403 h -35.53515 c -12.92166,0 -19.38282,-7.2472 -19.38282,-21.7403 0,-14.49302 6.46116,-21.73824 19.38282,-21.73824 h 4.40625 V 926.10352 H 832.1875 v 61.30664 h 4.40625 c 12.92165,0 19.38281,7.24522 19.38281,21.73824 0,14.4931 -6.46116,21.7403 -19.38281,21.7403 h -35.53516 c -12.92165,0 -19.38281,-7.2472 -19.38281,-21.7403 0,-14.49302 6.46116,-21.73824 19.38281,-21.73824 h 1.76172 V 820.88477 c -10.18069,-1.44931 -15.27148,-8.69649 -15.27148,-21.74024 0,-14.49305 6.46116,-21.73828 19.38281,-21.73828 z m 166.51367,0 h 38.17769 c 12.9217,0 19.3809,7.24523 19.3809,21.73828 0,14.49306 -6.4592,21.74024 -19.3809,21.74024 h -10.2792 v 124.78515 c 0,13.33361 3.7204,24.63851 11.1601,33.91406 7.4397,9.27556 16.3481,13.91211 26.7246,13.91211 10.3765,0 19.2829,-4.63655 26.7227,-13.91211 7.4397,-9.27555 11.1601,-20.58045 11.1601,-33.91406 V 820.88477 h -10.2773 c -12.9217,0 -19.3828,-7.24718 -19.3828,-21.74024 0,-14.49305 6.4611,-21.73828 19.3828,-21.73828 h 38.1758 c 12.9216,0 19.3828,7.24523 19.3828,21.73828 0,14.49306 -5.9713,21.74024 -17.9141,21.74024 v 120.87109 c 0,28.69625 -6.7547,51.74115 -20.2637,69.13284 -13.509,17.3916 -29.1701,26.0879 -46.9863,26.0879 -17.8162,0 -33.4793,-8.6963 -46.98827,-26.0879 -13.509,-17.68155 -20.26367,-40.72645 -20.26367,-69.13284 V 820.88477 c -11.94274,-0.57973 -17.91406,-7.82691 -17.91406,-21.74024 0,-14.49305 6.46116,-21.73828 19.38281,-21.73828 z m 177.08399,0 h 74.3008 c 16.6415,0 30.3452,6.81012 41.1133,20.43359 10.9638,13.62347 16.4453,30.72651 16.4453,51.30664 0,18.55111 -6.1657,34.92767 -18.5,49.13086 20.7529,15.36264 31.1289,36.37771 31.1289,63.04493 0,20.86999 -5.2871,37.68165 -15.8594,50.43553 -10.5723,12.7539 -24.5695,19.1309 -41.9941,19.1309 h -86.6348 c -12.9217,0 -19.3828,-7.2472 -19.3828,-21.7403 0,-14.49302 6.4611,-21.73824 19.3828,-21.73824 h 4.4062 V 820.88477 h -4.4062 c -12.9217,0 -19.3828,-7.24718 -19.3828,-21.74024 0,-14.49305 6.4611,-21.73828 19.3828,-21.73828 z m 33.7734,43.47852 v 61.30468 h 33.1856 c 10.5722,0 19.088,-3.04377 25.5488,-9.13086 6.6566,-6.37694 9.9844,-14.49238 9.9844,-24.34765 0,-8.69584 -2.6436,-15.50791 -7.9297,-20.43555 -5.2861,-4.92764 -12.5287,-7.39062 -21.7305,-7.39062 z m 0,104.78515 v 61.74024 h 51.3926 c 19.9698,0 29.9551,-7.82602 29.9551,-23.47852 0,-9.27555 -3.3297,-17.97178 -9.9863,-26.08789 -6.6566,-8.11611 -17.2289,-12.17383 -31.7168,-12.17383 z"
       transform="scale(0.26458333)" />
  </g>
</svg>
