<?xml version="1.0" encoding="UTF-8" standalone="no"?>
<!-- Created with Inkscape (http://www.inkscape.org/) -->

<svg
   width="1711.3"
   height="310.48"
   version="1.1"
   viewBox="0 0 119.8 82.147"
   id="svg20"
   sodipodi:docname="gamehub2.svg"
   inkscape:version="1.1.2 (0a00cf5339, 2022-02-04)"
   xmlns:inkscape="http://www.inkscape.org/namespaces/inkscape"
   xmlns:sodipodi="http://sodipodi.sourceforge.net/DTD/sodipodi-0.dtd"
   xmlns="http://www.w3.org/2000/svg"
   xmlns:svg="http://www.w3.org/2000/svg">
  <defs
     id="defs24" />
  <sodipodi:namedview
     id="namedview22"
     pagecolor="#ffffff"
     bordercolor="#999999"
     borderopacity="1"
     inkscape:pageshadow="0"
     inkscape:pageopacity="0"
     inkscape:pagecheckerboard="0"
     showgrid="false"
     inkscape:zoom="0.2681492"
     inkscape:cx="954.69238"
     inkscape:cy="80.179243"
     inkscape:window-width="1296"
     inkscape:window-height="704"
     inkscape:window-x="0"
     inkscape:window-y="0"
     inkscape:window-maximized="1"
     inkscape:current-layer="g18" />
  <g
     transform="translate(-91.304 -202.32)"
     id="g18">
    <g
       style="fill-opacity:0.9587;fill:#ff6600"
       id="g16">
      <text
         transform="scale(.96391 1.0374)"
         x="-81.123962"
         y="251.52591"
         style="fill-opacity:0.9587;fill:#ff6600;font-family:NATS;font-size:94.659px;font-variant-caps:normal;font-variant-east-asian:normal;font-variant-ligatures:normal;font-variant-numeric:normal;line-height:1.25"
         xml:space="preserve"
         id="text4"><tspan
           x="-81.123962"
           y="251.52591"
           style="fill-opacity:0.9587;fill:#ff6600;font-family:'Tlwg Mono';font-size:94.659px;font-variant-caps:normal;font-variant-east-asian:normal;font-variant-ligatures:normal;font-variant-numeric:normal;font-weight:bold"
           id="tspan2">Ga</tspan></text>
      <path
         d="m52.743 214.9c-0.80214 0.079-1.7923 0.22015-2.5758 0.37255-1.6742 0.3274-2.5551 0.68867-3.3286 1.366-0.56324 0.49675-1.2645 1.9362-1.7016 3.511-0.12193 0.44594-0.22922 0.82413-0.24267 0.82978-0.0068 6e-3 -0.36459 0.2258-0.79643 0.4798-2.1529 1.287-3.7442 2.5176-4.4289 3.432-0.71218 0.95961-1.3368 2.224-1.902 3.8723-0.41689 1.2193-0.40215 1.1459-1.2039 7.5019-0.73019 5.752-0.92078 8.0494-1.0032 12.023-0.05878 3.082-0.01454 4.9618 0.14782 6.2431 0.20359 1.5692 0.84096 2.7828 2.0084 3.8384 1.5348 1.383 3.1345 2.1676 5.1956 2.5458 0.95742 0.17498 2.7655 0.17498 3.5294 0 1.0923-0.24837 2.1698-0.77334 3.3739-1.6426 1.6439-1.1854 2.9148-2.7546 4.879-6.0455 0.46876-0.79026 1.02-1.7047 1.213-2.0321 0.24116-0.40079 0.48727-0.71124 0.75888-0.95961 0.22405-0.20322 0.56432-0.55319 0.76867-0.77333l0.36814-0.41207 0.6716 0.46852c1.5211 1.0556 2.2691 1.366 4.0311 1.6821 0.82451 0.14677 2.4586 0.17498 3.2548 0.0564 1.8266-0.27094 3.4107-0.77333 4.766-1.5184 1.1598-0.64351 1.8679-1.3886 2.8119-2.9579l0.49609-0.82413h8.8736l0.46466 0.82413c0.88412 1.5692 1.5638 2.3144 2.6991 2.9579 1.3069 0.73944 2.8918 1.2475 4.7081 1.5184 0.7917 0.11854 2.4269 0.0904 3.257-0.0564 1.7741-0.31611 2.5339-0.62658 4.0953-1.6821l0.68947-0.46852 0.35241 0.41207c0.18929 0.22014 0.50976 0.55882 0.71304 0.74511 0.4129 0.38949 0.52287 0.57011 1.6969 2.6812 1.9542 3.5336 3.1123 5.0803 4.7235 6.3052 1.1706 0.89188 2.3138 1.4676 3.4165 1.7217 0.76393 0.17498 2.5653 0.17498 3.5361 0 2.0755-0.37819 3.7051-1.1628 5.2926-2.5458 1.2077-1.0556 1.8914-2.2692 2.1548-3.8384 0.21125-1.2814 0.32715-3.1611 0.38592-6.2431 0.0691-3.9796-0.0338-6.277-0.54464-12.023-0.54802-6.2487-0.57148-6.4181-1.0187-7.8067-0.54805-1.6991-1.1066-2.845-1.8488-3.8102-0.61188-0.80156-2.249-2.0716-4.1618-3.2232l-0.73864-0.45159-0.0675-0.31045c-0.0366-0.175-0.16744-0.66609-0.28602-1.0951-0.59905-2.1732-1.301-3.1498-2.6911-3.7255-0.90684-0.3782-2.3154-0.68867-4.0528-0.89188-0.93191-0.1129-2.8938-0.0959-3.63 0.0283-0.68269 0.1129-1.5281 0.36127-1.9591 0.57011-0.65331 0.32176-1.4408 1.033-2.2607 2.0434-0.51256 0.63786-0.68527 0.94832-0.9329 1.6878-0.19844 0.60963-0.54775 2.1337-0.55335 2.4272l-3e-3 0.175h-34.828l0.0034-0.175c0.0113-0.59269-0.49521-2.7208-0.7779-3.2909-0.21188-0.43465-1.1308-1.5805-1.6421-2.0547-0.81945-0.76204-1.5799-1.1177-2.8897-1.3604-0.69818-0.12418-2.4318-0.18063-3.2673-0.10156zm54.127 7.8236c1.3151 0.31045 2.1831 1.3265 2.1667 2.5345-0.0111 0.58141-0.15883 0.98218-0.55539 1.4846-0.88176 1.1064-2.7637 1.4789-4.1054 0.81284-1.5863-0.78463-2.034-2.495-0.9886-3.7876 0.33489-0.41772 0.7068-0.67738 1.2849-0.90317 0.73273-0.28788 1.3806-0.3274 2.1977-0.14111zm-53.031 2.9522-0.03004 1.5749-0.37438 0.38948c-0.61909 0.62658-1.5882 1.4168-1.9043 1.5467l-0.29583 0.11854-0.2913-0.11854c-0.33758-0.14111-1.0667-0.73946-1.7342-1.4225l-0.47112-0.48545 0.03036-1.5918 0.03025-1.5862h5.0706zm45.537 2.7151c0.84217 0.27094 1.5898 0.94831 1.8497 1.6652 0.16497 0.44595 0.15087 1.1854-0.0239 1.6088-0.2446 0.58141-0.62641 1.0104-1.2068 1.3547-0.58024 0.33869-1.0496 0.46288-1.7704 0.47417-0.73401 6e-3 -1.2254-0.11854-1.7929-0.44594-1.5903-0.92574-1.7664-2.8845-0.36337-4.036 0.42701-0.34998 0.88499-0.57576 1.4279-0.7056 0.50266-0.11854 1.3759-0.079 1.8798 0.0847zm14.74-0.1073c0.90427 0.1637 1.7343 0.72253 2.1407 1.4507 0.22608 0.3895 0.24459 0.46851 0.25438 1.0048 0.0238 0.84672-0.19231 1.3378-0.86424 1.9362-1.2152 1.0951-3.217 1.112-4.4709 0.0395-0.61047-0.52495-0.86648-1.0951-0.85818-1.8797 0.0245-1.637 1.8899-2.8901 3.7982-2.5514zm-66.12 0.44594c1.0669 0.73381 1.8855 1.5354 1.8798 1.8345-0.0053 0.27659-0.77976 1.0048-1.8953 1.7724l-0.50029 0.34434h-3.783l0.04015-2.1055c0.02217-1.1628 0.06062-2.1281 0.08765-2.145 0.02047-0.0226 0.86142-0.0395 1.8622-0.0395h1.8214zm10.654 1.8063-0.04037 2.1168-1.8618 0.0169-1.8617 0.0116-0.36243-0.23707c-0.57991-0.3782-1.591-1.2362-1.7994-1.5072-0.09738-0.14112-0.18068-0.32175-0.17906-0.40641 0.0058-0.30482 0.93601-1.1515 2.0979-1.9023l0.35813-0.23709 1.8479 0.0116 1.8411 0.0169zm28.308-0.30481c1.2941 0.36126 2.329 0.67173 2.3018 0.69996-0.03377 0.0226-0.31563 0.1073-0.63083 0.19191-0.31508 0.079-1.3748 0.37255-2.3609 0.64915l-1.7977 0.50237 0.02577-1.3491c0.01406-0.73947 0.04573-1.3491 0.06577-1.3491s1.1019 0.29352 2.3961 0.65479zm-14.738 0.67173-0.02422 1.2701h-4.8705l0.02422-1.2701 0.02422-1.2701h4.8705zm-20.669 1.0386c0.36329 0.19192 0.8427 0.5927 1.4907 1.2475l0.64146 0.64915-0.04348 1.5805-0.05015 1.5805h-5.0039l0.01021-1.5862 0.01694-1.5862 0.44885-0.44594c0.67321-0.66608 1.1003-1.0217 1.5459-1.2983 0.43228-0.27659 0.63965-0.30482 0.94343-0.14112zm55.509 2.1619c1.1718 0.47981 1.7832 1.3039 1.7626 2.3877-0.0148 0.77897-0.35426 1.4338-1.011 1.9362-0.67031 0.51366-1.3413 0.71124-2.3214 0.67736-0.58679-0.0169-0.69312-0.0395-1.1564-0.23707-2.535-1.0669-2.2162-4.1376 0.50699-4.894 0.30185-0.0847 0.52902-0.10151 1.0559-0.0904 0.61349 0.0169 0.72648 0.0395 1.1634 0.22014zm-41.404 4.4819c1.463 0.25402 2.8429 1.0161 3.6842 2.0321 0.37836 0.45158 0.77124 1.191 0.93416 1.7442 0.20726 0.67737 0.18379 1.9079-0.04899 2.5684-0.45854 1.3039-1.352 2.3256-2.6398 3.0312-1.0787 0.58706-2.0708 0.82979-3.3785 0.82979-1.2542-6e-3 -2.2835-0.25966-3.2869-0.82415-2.3171-1.2983-3.2645-3.7481-2.3206-6.0116 0.31466-0.75639 0.71153-1.2757 1.4709-1.9136 0.94935-0.80155 1.8783-1.2305 3.1302-1.4564 0.60262-0.11286 1.8236-0.11286 2.4553 0zm27.548-6e-3c2.008 0.36127 3.628 1.4789 4.3724 3.0256 1.4251 2.9409-0.62708 6.2939-4.3246 7.0616-0.82388 0.16934-2.0248 0.16934-2.8422 0-1.4354-0.29918-2.7287-1.0556-3.5302-2.0603-0.52773-0.66608-0.8102-1.2475-0.97526-2.0378-0.10449-0.46851-0.06467-1.5072 0.06493-2.0039 0.54517-1.9982 2.4092-3.5336 4.8532-3.9908 0.52223-0.0961 1.8366-0.0961 2.3818 6e-3z"
         style="fill-opacity:0.9587;fill:#ff6600"
         id="path6" />
      <text
         x="126.58504"
         y="257.90433"
         style="fill-opacity:0.9587;fill:#ff6600;font-family:'Tlwg Mono';font-size:94.544px;font-variant-caps:normal;font-variant-east-asian:normal;font-variant-ligatures:normal;font-variant-numeric:normal;font-weight:bold;line-height:1.25"
         xml:space="preserve"
         id="text10"><tspan
           x="126.58504"
           y="257.90433"
           style="fill-opacity:0.9587;fill:#ff6600;font-family:'Tlwg Mono';font-size:94.544px;font-variant-caps:normal;font-variant-east-asian:normal;font-variant-ligatures:normal;font-variant-numeric:normal;font-weight:bold"
           id="tspan8">e</tspan></text>
      <rect
         x="34.411"
         y="284.11"
         width="6.3942"
         height=".35606"
         ry=".17803"
         style="fill-opacity:0.9587;fill:#ff6600"
         id="rect12" />
      <path
         d="m192.4 205.66c-2.0308 0-3.6659 1.4589-3.6659 3.2708v56.553c0 1.812 1.6351 3.2708 3.6659 3.2708h181.53c2.0308 0 3.6654-1.4589 3.6654-3.2708v-56.553c0-1.812-1.6346-3.2708-3.6654-3.2708zm12.022 5.229h10.967v19.824c3.7818-3.4304 8.0994-5.146 12.953-5.146 5.0424 0 9.0762 1.2935 12.102 3.8803 3.0885 2.5306 4.6328 5.905 4.6328 10.123v15.521c2.3321 0 4.0336 0.30953 5.1051 0.92813 1.1345 0.6186 1.7022 1.7151 1.7022 3.2897 0 2.8118-2.08 4.2178-6.2399 4.2178h-10.589c-4.223 0-6.3345-1.406-6.3345-4.2178 0-1.5184 0.56717-2.5868 1.7017-3.2053 1.1345-0.67484 2.8676-1.0125 5.1997-1.0125v-14.424c0-2.4744-0.69333-4.1895-2.08-5.1455-1.3236-1.0122-3.4036-1.5183-6.2399-1.5183-2.206 0-4.0652 0.36535-5.578 1.0964s-3.6242 2.2497-6.3345 4.5553v15.437c2.3951 0 4.1287 0.30953 5.2002 0.92813 1.1345 0.6186 1.7017 1.7151 1.7017 3.2897 0 2.8118-2.1115 4.2178-6.3345 4.2178h-10.589c-4.16 0-6.2399-1.406-6.2399-4.2178 0-1.5746 0.53563-2.6711 1.6071-3.2897 1.1345-0.6186 2.8681-0.92813 5.2002-0.92813v-35.766h-1.5131c-4.16 0-6.2399-1.406-6.2399-4.2178 0-2.8118 2.08-4.2178 6.2399-4.2178zm111.47 0h10.967v18.811c3.9709-2.8118 8.698-4.2178 14.182-4.2178 3.8448 0 7.2799 0.59046 10.305 1.7714 3.0885 1.1247 5.5469 2.6433 7.3748 4.5554 1.8909 1.8558 3.3091 3.9367 4.2545 6.2424 0.94546 2.2494 1.418 4.6113 1.418 7.0857 0 5.1737-2.0169 9.7286-6.0508 13.665-4.0339 3.9365-9.7697 5.9049-17.207 5.9049-5.0424 0-9.801-1.3779-14.276-4.1335v2.9527h-10.967c-4.1599 0-6.2399-1.406-6.2399-4.2178 0-2.8118 2.08-4.2178 6.2399-4.2178h1.5131v-35.766h-1.5131c-4.1599 0-6.2399-1.406-6.2399-4.2178 0-2.8118 2.08-4.2178 6.2399-4.2178zm-54.741 15.775h10.967v23.45c0 4.049 2.7733 6.0736 8.3199 6.0736 2.3951 0 4.3805-0.36582 5.9562-1.0969 1.5757-0.78731 3.5926-2.3336 6.0508-4.6393v-15.353h-3.3094c-1.8909 0-3.4032-0.33721-4.5377-1.012-1.1345-0.73107-1.7022-1.7999-1.7022-3.2058 0-2.8118 2.08-4.2174 6.2399-4.2174h12.764v28.427c3.8448 0 5.7676 1.406 5.7676 4.2178 0 2.8118-2.08 4.2178-6.2399 4.2178h-8.9819v-4.0491c-2.3321 1.9683-4.4436 3.318-6.3345 4.0491-1.8278 0.73108-4.034 1.0964-6.6182 1.0964-4.9794 0-9.0447-1.2372-12.196-3.7116-3.0884-2.5306-4.6328-6.0452-4.6328-10.544v-15.268h-2.5528c-1.5757 0-2.8362-0.39349-3.7817-1.1808s-1.418-1.7998-1.418-3.037c0-2.8118 2.08-4.2174 6.2399-4.2174zm79.795 7.2544c-2.6472 0-4.9475 0.39349-6.9014 1.1808s-3.4352 1.7998-4.4436 3.037c-0.94546 1.2372-1.6388 2.4181-2.08 3.5428-0.4412 1.1247-0.66197 2.2212-0.66197 3.2897 0 3.3179 1.292 6.0451 3.8763 8.1821 2.6472 2.0807 6.0508 3.1214 10.211 3.1214 4.0969 0 7.4379-1.0407 10.022-3.1214 2.6472-2.137 3.9708-4.836 3.9708-8.0977 0-1.0123-0.22077-2.0806-0.66199-3.2054-0.44119-1.181-1.166-2.39-2.1745-3.6272-0.94543-1.2372-2.3952-2.2498-4.3491-3.0371-1.9539-0.84354-4.2231-1.2652-6.8073-1.2652z"
         style="fill-opacity:0.9587;fill:#ff6600"
         id="path14" />
    </g>
  </g>
</svg>
